<svg xmlns="http://www.w3.org/2000/svg" viewBox="0 0 562 86"><g id="Layer_1" data-name="Layer 1"><path d="M73.2,39.87A21.86,21.86,0,1,0,95.06,61.73,21.88,21.88,0,0,0,73.2,39.87Z"/><path d="M73.2.43a24,24,0,0,0-24,24,24,24,0,0,0-48,0V61.73h0a24,24,0,0,0,48,0h0a24,24,0,1,1,48,0V24.44A24,24,0,0,0,73.2.43Zm-48,83.15A21.86,21.86,0,1,1,47,61.73,21.87,21.87,0,0,1,25.17,83.58Z"/><path d="M126.14,65.57V63.91l1.51-.46a3.12,3.12,0,0,0,2-1.47,5.84,5.84,0,0,0,.53-2.67V22a6.7,6.7,0,0,0-.38-2.45,2.87,2.87,0,0,0-1.88-1.47l-1.74-.68V15.71h14.41l14.18,36.88,13.35-36.88h14.71v1.66l-1.21.38a3.18,3.18,0,0,0-2,1.39,5,5,0,0,0-.53,2.45Q179,26,179,30.3V50.93q0,4.38.08,8.68a5.88,5.88,0,0,0,.38,2.41,2.93,2.93,0,0,0,1.81,1.36l1.51.53v1.66H164.46V63.91l1.66-.53a2.78,2.78,0,0,0,1.77-1.4,6.8,6.8,0,0,0,.34-2.37V43.24L168.38,23,153,65.57h-4.22L132.55,23.48l.3,17.2v18.7a6.22,6.22,0,0,0,.46,2.64,2.63,2.63,0,0,0,1.88,1.36l1.51.53v1.66Z"/><path d="M197,66.62a11.11,11.11,0,0,1-7.28-2.45,8.59,8.59,0,0,1-3-7.05c0-2.42,1.17-4.64,3.51-6.68s6-3.53,11.05-4.48c.85-.2,1.85-.39,3-.57s2.25-.36,3.36-.57V39.47q0-5.13-1.29-7.09a4.49,4.49,0,0,0-4.07-2h-.23a3.58,3.58,0,0,0-2.75,1.09A6.31,6.31,0,0,0,198,35.09l-.23,1a6.89,6.89,0,0,1-1.58,4.42,4.53,4.53,0,0,1-3.39,1.39,4.39,4.39,0,0,1-3.13-1.17,4,4,0,0,1-1.25-3.05,7.12,7.12,0,0,1,2.11-5.21,13.22,13.22,0,0,1,5.62-3.16,26,26,0,0,1,7.58-1.06q6.72,0,10.26,3.24T217.56,42V58.85q0,3.26,3.09,3.25h1.73l.76.83a10.31,10.31,0,0,1-3,2.67,9.15,9.15,0,0,1-4.52,1A8,8,0,0,1,210.43,65a7.23,7.23,0,0,1-2.53-4.11A29,29,0,0,1,203.15,65,10.76,10.76,0,0,1,197,66.62Zm4.38-4.82a6.34,6.34,0,0,0,2.86-.68,22,22,0,0,0,3.4-2.27V46.79c-1.31.2-2.64.45-4,.75a10.42,10.42,0,0,0-5.24,2.79,7.49,7.49,0,0,0-2,5.51,6.3,6.3,0,0,0,1.39,4.48A4.74,4.74,0,0,0,201.42,61.8Z"/><path d="M225,65.57V64.13l1.13-.37a3.45,3.45,0,0,0,2.57-3.7V21a3.75,3.75,0,0,0-.6-2.3A3.7,3.7,0,0,0,226,17.52l-1-.3V15.78l13.2-3.16,1,.68-.3,10.63V60.06q0,3,2.57,3.77l1.05.3v1.44Zm27.61,0L239,46.71l13.35-12.37a3,3,0,0,0,1.13-1.85c.1-.68-.33-1.14-1.28-1.39L251,30.79V29.36h11.77v1.43l-2.19.53a8,8,0,0,0-2.72,1.25q-1.05.8-2.49,2.07l-8.29,7.77L259.87,60a16.71,16.71,0,0,0,2.19,2.46,8.39,8.39,0,0,0,2.64,1.47l.75.22v1.44Z"/><path d="M283.86,28.23a16,16,0,0,1,8.14,2,13.58,13.58,0,0,1,5.24,5.39,16.42,16.42,0,0,1,1.85,7.89c0,.65,0,1.27-.07,1.84a8.26,8.26,0,0,1-.31,1.63H276q.08,7.77,2.9,11.16t8.26,3.39a13,13,0,0,0,6.11-1.24,15.11,15.11,0,0,0,4.3-3.51l1.21,1.13a16.47,16.47,0,0,1-6.15,6.45,17.75,17.75,0,0,1-9.24,2.3A19.1,19.1,0,0,1,274,64.36a16,16,0,0,1-6.37-6.52,21.32,21.32,0,0,1-2.3-10.23A19.41,19.41,0,0,1,268,37.13a18.36,18.36,0,0,1,6.94-6.6A18.6,18.6,0,0,1,283.86,28.23Zm-.38,2.19a6.07,6.07,0,0,0-3.81,1.24A8.44,8.44,0,0,0,277.1,36,35.49,35.49,0,0,0,276,44.82h13.5c.55-5.07.35-8.75-.6-11A5.37,5.37,0,0,0,283.48,30.42Z"/><path d="M302.94,65.57V64.13l1.13-.37a3.23,3.23,0,0,0,2.07-1.29,4.45,4.45,0,0,0,.57-2.41V38a5.43,5.43,0,0,0-.6-2.53,3,3,0,0,0-2-1.17l-1.13-.3V32.6l12.29-4.37.91.83.68,6.64v.53a17.61,17.61,0,0,1,2.86-3.93,16.51,16.51,0,0,1,3.77-2.94,8.39,8.39,0,0,1,4.08-1.13,5.66,5.66,0,0,1,4.3,1.51,5.39,5.39,0,0,1,1.43,3.85,5,5,0,0,1-1.43,3.88,5,5,0,0,1-3.47,1.32,6.52,6.52,0,0,1-5.21-2.72l-.15-.15a2.59,2.59,0,0,0-1.7-1,2.09,2.09,0,0,0-1.84.94,9.76,9.76,0,0,0-1.4,1.77A13.53,13.53,0,0,0,316.89,40V59.76a4.32,4.32,0,0,0,.6,2.37,3.31,3.31,0,0,0,2,1.32l2.26.68v1.44Z"/><path d="M362.45,66.85a24.08,24.08,0,0,1-8.83-1.66A22.67,22.67,0,0,1,346,60.25a23.45,23.45,0,0,1-5.31-8.19,30.65,30.65,0,0,1-2-11.46,30.25,30.25,0,0,1,2-11.31A23.91,23.91,0,0,1,346,21.06a22.73,22.73,0,0,1,7.62-5,23.58,23.58,0,0,1,8.79-1.7A24.19,24.19,0,0,1,371.24,16,22.18,22.18,0,0,1,378.82,21a23.82,23.82,0,0,1,5.28,8.19,30.86,30.86,0,0,1,2,11.46,30.42,30.42,0,0,1-2,11.31,24.29,24.29,0,0,1-5.28,8.23,22.45,22.45,0,0,1-7.55,5A23.46,23.46,0,0,1,362.45,66.85Zm0-2.26a10.44,10.44,0,0,0,6.94-2.23q2.64-2.22,3.84-7.5a66.4,66.4,0,0,0,1.21-14.26,65.87,65.87,0,0,0-1.21-14.22q-1.2-5.23-3.84-7.46a11.85,11.85,0,0,0-13.84,0c-1.79,1.48-3.08,4-3.89,7.46a66.61,66.61,0,0,0-1.2,14.22,67.16,67.16,0,0,0,1.2,14.26c.81,3.52,2.1,6,3.89,7.5A10.44,10.44,0,0,0,362.45,64.59Z"/><path d="M389.22,83V81.56l1-.31A3.49,3.49,0,0,0,392.32,80a4.29,4.29,0,0,0,.6-2.45c0-2.06,0-4,0-5.85s0-3.61,0-5.31V41.62c0-1.13,0-2.4-.08-3.81a4.74,4.74,0,0,0-.53-2.45,2.88,2.88,0,0,0-2-1.17L389.22,34V32.6l12.15-4.37.9.75.68,2.8a20.37,20.37,0,0,1,11.77-3.55A12.55,12.55,0,0,1,425,33.06q3.89,4.83,3.89,14.25,0,9.13-4.26,14.22t-11.58,5.09a27.37,27.37,0,0,1-5.55-.53,17.28,17.28,0,0,1-4.63-1.58v2.26c0,1.51,0,3.15,0,4.91s0,3.67,0,5.73a3.49,3.49,0,0,0,2.64,3.77l1.43.38V83Zm20.29-19.38a7.13,7.13,0,0,0,6.3-3.59q2.29-3.59,2.3-12.41t-2.19-12.25a6.89,6.89,0,0,0-6.18-3.51,11.78,11.78,0,0,0-3.09.45,16,16,0,0,0-3.55,1.51V62.32A16.13,16.13,0,0,0,409.51,63.61Z"/><path d="M445.42,66.62a24.76,24.76,0,0,1-6.53-.79,26.29,26.29,0,0,1-5.54-2.22V54.7h2l2.27,4.3a11.44,11.44,0,0,0,3.28,4.15,7.71,7.71,0,0,0,4.71,1.36A9.31,9.31,0,0,0,451.3,63a4.9,4.9,0,0,0,2.11-4.18,5.18,5.18,0,0,0-1.58-3.92,15,15,0,0,0-5.66-2.8L442.85,51a15.86,15.86,0,0,1-7.05-4.11,9.64,9.64,0,0,1-2.6-6.9,10.62,10.62,0,0,1,1.73-5.92A12,12,0,0,1,440,29.81a18.7,18.7,0,0,1,8.07-1.58,21.25,21.25,0,0,1,5.69.72,26.1,26.1,0,0,1,5.09,2L458.39,39h-2l-2.34-4.3a9.51,9.51,0,0,0-2.45-3.36,6.29,6.29,0,0,0-3.81-.94A8.37,8.37,0,0,0,443,31.81,4.44,4.44,0,0,0,441,35.7a4.75,4.75,0,0,0,1.73,3.81,17.32,17.32,0,0,0,5.58,2.75l3.25,1q5.5,1.74,7.84,4.6a10.51,10.51,0,0,1,2.34,6.86,10.38,10.38,0,0,1-4.26,8.64C454.61,65.53,450.59,66.62,445.42,66.62Z"/><path d="M476.18,65.46V64.32l1.08-.32a2.5,2.5,0,0,0,1.44-1,3.53,3.53,0,0,0,.36-1.76V33.79A3.6,3.6,0,0,0,478.7,32a2.5,2.5,0,0,0-1.44-1l-1.08-.32V29.55h13.58v1.14l-1.08.32a2.71,2.71,0,0,0-1.42,1,3.47,3.47,0,0,0-.38,1.77V61.23a3.41,3.41,0,0,0,.38,1.76,2.71,2.71,0,0,0,1.42,1l1.08.32v1.14Z"/><path d="M492.15,65.46v-1l.87-.22a2.46,2.46,0,0,0,1.79-2.66v-16a4.15,4.15,0,0,0-.38-1.76,1.87,1.87,0,0,0-1.41-.85l-.87-.21v-1l8.8-3.15.66.6.38,3.36a17.79,17.79,0,0,1,4.37-2.85,11.35,11.35,0,0,1,4.76-1.11,7.41,7.41,0,0,1,5.51,2q1.93,2,1.93,6V61.61a2.48,2.48,0,0,0,2,2.66l.59.16v1H508.62v-1l.81-.22a2.5,2.5,0,0,0,1.79-2.66V45.41a4,4,0,0,0-.81-2.77,3.59,3.59,0,0,0-2.72-.87,8.93,8.93,0,0,0-5.54,2.34v17.5a2.47,2.47,0,0,0,1.9,2.66l.55.16v1Z"/><path d="M536.65,66.23A13.89,13.89,0,0,1,530,64.62a11.55,11.55,0,0,1-4.7-4.67,15.16,15.16,0,0,1-1.71-7.47,14,14,0,0,1,1.9-7.5,12.84,12.84,0,0,1,5.08-4.76,14.94,14.94,0,0,1,7-1.65,12.17,12.17,0,0,1,5.27,1,8.36,8.36,0,0,1,3.32,2.64,5.74,5.74,0,0,1,1.14,3.39,3,3,0,0,1-.9,2.34,3.32,3.32,0,0,1-2.31.81,3.14,3.14,0,0,1-2.47-1.08,4.84,4.84,0,0,1-1.11-2.77,12.27,12.27,0,0,1,0-1.85,5.54,5.54,0,0,0,0-1.47,1.91,1.91,0,0,0-.74-1.25,2.65,2.65,0,0,0-1.44-.33A5.91,5.91,0,0,0,533,42.78q-1.81,2.74-1.82,8.88,0,5.28,2,8.1t6.25,2.82a8.07,8.07,0,0,0,4.13-.95,10.2,10.2,0,0,0,3-2.74l.87.65a10.29,10.29,0,0,1-4.16,5A12.53,12.53,0,0,1,536.65,66.23Z"/><path d="M556.49,66.23a4.47,4.47,0,0,1-3.24-1.31,4.28,4.28,0,0,1-1.33-3.15,4.52,4.52,0,0,1,1.33-3.26,4.53,4.53,0,0,1,6.47,0,4.48,4.48,0,0,1,1.33,3.26,4.24,4.24,0,0,1-1.33,3.15A4.46,4.46,0,0,1,556.49,66.23Z"/></g></svg>