<svg xmlns="http://www.w3.org/2000/svg" viewBox="0 0 115 102"><defs><style>.cls-1{fill:#fff;}</style></defs><g id="Backs"><rect x="-16.09" y="-16.09" width="149.77" height="136.46"/></g><g id="Layer_1" data-name="Layer 1"><path class="cls-1" d="M85.94,47.15A25.89,25.89,0,1,0,111.83,73,25.91,25.91,0,0,0,85.94,47.15Z"/><path class="cls-1" d="M85.94.43A28.45,28.45,0,0,0,57.5,28.88a28.45,28.45,0,1,0-56.89,0V73h0A28.45,28.45,0,1,0,57.5,73h0a28.45,28.45,0,0,1,56.89,0V28.88A28.45,28.45,0,0,0,85.94.43ZM29.06,98.92A25.89,25.89,0,1,1,54.94,73,25.91,25.91,0,0,1,29.06,98.92Z"/></g></svg>